<?xml version="1.0" standalone="no"?>
<!DOCTYPE svg PUBLIC "-//W3C//DTD SVG 20010904//EN"
 "http://www.w3.org/TR/2001/REC-SVG-20010904/DTD/svg10.dtd">
<svg version="1.0" xmlns="http://www.w3.org/2000/svg"
 width="866.000000pt" height="650.000000pt" viewBox="0 0 866.000000 650.000000"
 preserveAspectRatio="xMidYMid meet">

<g transform="translate(0.000000,650.000000) scale(0.100000,-0.100000)"
fill="#000000" stroke="none">
<path d="M1290 4366 l-195 -114 -3 -674 -2 -674 157 -91 c87 -50 261 -150 386
-222 125 -73 234 -134 242 -137 7 -3 130 61 272 143 142 82 320 185 396 228
l137 79 1 220 0 221 187 106 187 106 3 236 2 236 -37 25 c-67 43 -353 205
-368 208 -8 2 -105 -49 -215 -112 l-200 -115 -2 -220 -3 -220 -153 -88 c-84
-48 -157 -85 -163 -82 -7 5 -9 141 -8 410 1 221 -1 407 -5 413 -9 15 -391 232
-407 232 -8 0 -102 -52 -209 -114z m392 -51 c76 -44 135 -82 130 -86 -24 -24
-307 -179 -318 -175 -18 7 -297 166 -306 174 -4 4 66 49 155 99 145 83 164 91
182 79 11 -7 82 -48 157 -91z m1129 -206 c88 -51 158 -93 157 -94 -2 -1 -74
-44 -160 -94 l-157 -92 -143 82 c-79 45 -151 87 -161 94 -16 11 0 23 140 104
87 50 160 91 162 91 1 0 75 -41 162 -91z m-1448 -51 l107 -60 0 -438 0 -438
190 -108 189 -107 3 -180 c2 -98 0 -181 -4 -183 -4 -3 -108 53 -230 124 -123
70 -278 160 -345 198 l-122 69 -1 623 0 622 53 -30 c28 -17 100 -58 160 -92z
m487 -282 l0 -403 -150 -87 c-83 -47 -155 -86 -160 -86 -6 0 -10 148 -10 398
l0 397 158 92 c86 50 158 92 160 92 1 1 2 -181 2 -403z m618 90 l152 -88 0
-179 c0 -98 -4 -179 -9 -179 -4 0 -76 39 -160 86 l-151 86 0 185 c0 101 3 182
8 180 4 -2 76 -43 160 -91z m532 -89 l0 -183 -147 -84 c-81 -47 -153 -86 -160
-88 -10 -3 -13 33 -13 176 l0 180 158 91 c86 50 158 91 160 91 1 0 2 -82 2
-183z m-574 -324 c85 -49 154 -91 154 -94 0 -7 -684 -399 -696 -399 -12 0
-314 173 -314 179 0 3 105 66 233 139 127 73 282 162 342 197 61 35 114 64
119 65 5 0 78 -39 162 -87z m192 -335 l-3 -182 -115 -66 c-63 -37 -218 -126
-344 -198 -125 -73 -232 -132 -237 -132 -6 0 -8 77 -7 182 l3 182 345 198
c190 108 348 198 353 198 4 0 6 -82 5 -182z"/>
<path d="M3352 3338 l3 -523 243 -3 242 -2 0 75 0 75 -160 0 -160 0 0 450 0
450 -85 0 -85 0 2 -522z"/>
<path d="M7570 3335 l0 -526 78 3 77 3 3 523 2 522 -80 0 -80 0 0 -525z"/>
<path d="M4105 3500 c-65 -25 -137 -89 -174 -153 -136 -243 26 -547 293 -547
81 0 149 24 192 67 19 18 35 29 35 23 1 -5 2 -25 3 -42 l1 -33 78 -3 77 -3 0
351 0 351 -77 -3 -78 -3 -3 -42 -3 -43 -35 34 c-20 19 -56 42 -82 50 -62 22
-165 20 -227 -4z m240 -143 c21 -12 53 -42 70 -65 26 -38 30 -54 33 -120 3
-66 0 -84 -20 -121 -13 -25 -41 -58 -61 -75 -32 -26 -48 -31 -105 -34 -88 -5
-144 23 -187 93 -27 43 -30 57 -30 124 0 83 16 124 63 169 61 57 165 70 237
29z"/>
<path d="M5460 3511 c-92 -29 -172 -98 -217 -189 -25 -51 -28 -67 -28 -162 0
-94 3 -111 27 -161 60 -122 162 -191 291 -197 93 -5 151 13 209 66 l38 34 0
-46 0 -46 80 0 80 0 0 350 0 350 -80 0 -80 0 0 -47 0 -47 -32 31 c-52 50 -112
73 -193 72 -38 0 -81 -4 -95 -8z m193 -145 c96 -41 148 -166 116 -279 -13 -47
-72 -115 -116 -134 -73 -30 -177 -9 -230 49 -76 81 -71 253 8 324 59 53 152
70 222 40z"/>
<path d="M6992 3503 c-62 -25 -132 -82 -170 -137 -95 -142 -79 -347 37 -465
66 -68 136 -94 259 -99 99 -4 105 -3 165 26 34 17 84 50 110 74 l48 43 -54 41
-53 41 -38 -33 c-59 -51 -103 -68 -176 -69 -102 0 -179 56 -196 143 l-6 32
272 0 273 0 -5 78 c-8 138 -84 258 -197 314 -61 30 -205 36 -269 11z m189
-114 c19 -7 47 -23 63 -38 28 -25 65 -93 66 -118 0 -10 -46 -13 -195 -13 -220
0 -213 -3 -174 77 41 84 144 124 240 92z"/>
<path d="M4750 3160 l0 -350 75 0 75 0 2 268 3 267 138 3 c79 1 137 7 138 12
0 6 0 33 0 60 0 101 27 90 -216 90 l-215 0 0 -350z"/>
<path d="M6030 3498 c0 -7 58 -164 129 -348 l128 -335 102 0 102 0 125 325
c68 179 127 335 130 348 6 21 4 22 -70 22 -91 0 -70 32 -192 -292 -49 -131
-91 -238 -94 -238 -3 0 -50 118 -106 263 l-101 262 -76 3 c-58 2 -77 0 -77
-10z"/>
</g>
</svg>
