<?xml version="1.0" standalone="no"?>
<!DOCTYPE svg PUBLIC "-//W3C//DTD SVG 20010904//EN"
 "http://www.w3.org/TR/2001/REC-SVG-20010904/DTD/svg10.dtd">
<svg version="1.0" xmlns="http://www.w3.org/2000/svg"
 width="512.000000pt" height="512.000000pt" viewBox="0 0 512.000000 512.000000"
 preserveAspectRatio="xMidYMid meet">

<g transform="translate(0.000000,512.000000) scale(0.100000,-0.100000)"
fill="#000000" stroke="none">
<path d="M2270 3794 c-19 -2 -93 -9 -165 -15 -276 -23 -636 -97 -890 -182
-377 -127 -631 -271 -839 -475 -128 -126 -213 -263 -251 -407 -19 -71 -22
-231 -6 -295 72 -284 313 -536 699 -733 357 -183 772 -294 1317 -352 82 -9
151 -17 152 -19 4 -3 -196 -65 -217 -67 -56 -6 151 -19 385 -25 396 -9 665 12
1010 81 790 158 1374 503 1575 930 152 322 75 658 -217 948 -154 153 -344 279
-583 388 -117 54 -374 147 -449 164 l-34 7 7 -46 c4 -25 4 -46 1 -46 -4 0 -76
16 -161 35 -350 80 -585 106 -989 110 -170 2 -326 1 -345 -1z m388 -236 c17
-17 15 -57 -13 -198 -14 -69 -25 -128 -25 -132 0 -5 39 -8 88 -8 141 -1 290
-18 361 -41 82 -28 159 -100 180 -169 l14 -45 23 110 c32 161 -4 148 419 142
376 -5 411 -9 522 -63 95 -46 173 -143 202 -252 19 -68 14 -216 -8 -305 -61
-236 -252 -425 -476 -472 -38 -8 -151 -17 -251 -21 l-181 -7 -28 -151 c-15
-83 -34 -161 -42 -173 -13 -22 -18 -23 -192 -23 -235 0 -223 -11 -187 182 15
79 29 150 31 158 4 13 -17 15 -158 12 -179 -3 -210 4 -215 49 -2 15 24 167 57
338 34 171 61 325 61 341 0 25 -5 30 -37 39 -21 6 -86 11 -145 11 l-107 0 -10
-52 c-6 -29 -38 -194 -71 -366 -34 -172 -64 -320 -67 -328 -10 -27 -51 -34
-201 -34 -215 0 -219 4 -183 181 12 56 21 104 21 106 0 2 -22 -23 -50 -56 -55
-66 -151 -139 -223 -170 -78 -34 -184 -50 -369 -57 -168 -7 -177 -8 -182 -28
-2 -12 -17 -82 -31 -156 -15 -74 -31 -143 -36 -152 -9 -16 -29 -18 -192 -18
-198 0 -207 2 -207 53 0 39 259 1366 271 1388 5 10 25 21 44 25 20 3 183 4
363 1 352 -5 403 -12 503 -63 76 -38 134 -97 174 -176 29 -59 35 -66 40 -46 3
13 32 157 64 321 37 193 63 302 72 308 22 14 363 11 377 -3z"/>
<path d="M2317 3488 c-8 -31 -257 -1313 -257 -1321 0 -4 65 -7 144 -7 l145 0
10 53 c6 28 36 180 66 337 30 157 60 309 66 339 l11 53 161 -4 c173 -5 207
-13 226 -55 18 -40 13 -80 -49 -401 -33 -170 -60 -312 -60 -316 0 -4 66 -5
147 -4 l147 3 64 320 c66 331 77 440 54 506 -18 52 -76 105 -139 129 -62 23
-226 40 -394 40 l-116 0 27 138 c15 75 31 154 34 175 l7 37 -144 0 c-142 0
-145 0 -150 -22z"/>
<path d="M1067 3139 c-8 -31 -257 -1315 -257 -1323 0 -3 65 -6 144 -6 129 0
145 2 150 18 2 9 16 78 31 152 14 74 28 144 30 156 4 20 12 21 202 28 109 3
230 13 268 21 195 41 356 190 422 390 34 103 38 261 10 343 -23 66 -98 149
-163 182 -95 47 -138 52 -495 57 l-336 5 -6 -23z m628 -224 c22 -11 50 -36 63
-55 22 -32 24 -43 19 -125 -7 -139 -58 -250 -137 -300 -67 -42 -142 -56 -292
-53 l-134 3 46 240 c26 132 50 257 54 278 l7 39 167 -4 c143 -3 173 -6 207
-23z"/>
<path d="M1364 2843 c-3 -21 -22 -114 -40 -207 -19 -93 -34 -176 -34 -184 0
-24 221 -12 281 15 85 38 137 132 146 263 5 70 4 78 -18 103 -31 36 -78 46
-216 47 l-112 0 -7 -37z"/>
<path d="M3367 3154 c-3 -5 -62 -302 -131 -659 -69 -358 -128 -658 -130 -667
-4 -17 8 -18 143 -18 l148 0 33 173 33 174 201 7 c111 3 231 13 269 21 186 39
355 196 418 387 20 61 24 93 24 198 0 110 -3 130 -23 171 -50 101 -126 161
-248 195 -47 13 -125 17 -395 21 -188 3 -339 2 -342 -3z m592 -230 c99 -29
132 -94 113 -220 -25 -159 -86 -255 -190 -295 -48 -19 -82 -23 -216 -27 l-159
-4 6 28 c3 16 27 143 54 281 l48 253 146 0 c103 0 161 -5 198 -16z"/>
<path d="M3665 2868 c-2 -7 -20 -96 -40 -198 -19 -102 -38 -196 -41 -209 l-5
-24 120 5 c108 4 125 7 178 34 50 26 62 37 89 90 40 78 61 189 44 239 -19 57
-53 69 -207 73 -105 3 -134 1 -138 -10z"/>
</g>
</svg>
